<svg width="24" height="24" viewBox="0 0 24 24" fill="none" xmlns="http://www.w3.org/2000/svg">
<path d="M15.5001 7.49906C15.5001 9.43208 13.9331 10.9991 12 10.9991C10.067 10.9991 8.5 9.43208 8.5 7.49906C8.5 5.56604 10.067 3.99902 12 3.99902C13.9331 3.99902 15.5001 5.56604 15.5001 7.49906Z" fill="#A9A9A9"/>
<path d="M18.0001 16.5C18.0001 18.4331 15.3138 20.0001 12.0001 20.0001C8.68632 20.0001 6 18.4331 6 16.5C6 14.567 8.68632 13 12.0001 13C15.3138 13 18.0001 14.567 18.0001 16.5Z" fill="#A9A9A9"/>
<path d="M7.1221 5.00098C7.29957 5.00098 7.47282 5.01839 7.64011 5.05154C7.23255 5.77544 7.00005 6.61107 7.00005 7.501C7.00005 8.36927 7.22136 9.18584 7.61065 9.89739C7.4525 9.92686 7.28917 9.94229 7.1221 9.94229C5.70767 9.94229 4.56105 8.83614 4.56105 7.47163C4.56105 6.10713 5.70767 5.00098 7.1221 5.00098Z" fill="#A9A9A9"/>
<path d="M5.44737 18.9871C4.87945 18.3082 4.50003 17.4751 4.50003 16.5011C4.50003 15.5568 4.8566 14.7451 5.39582 14.0778C3.49111 14.2255 2 15.2673 2 16.5305C2 17.8055 3.51732 18.855 5.44737 18.9871Z" fill="#A9A9A9"/>
<path d="M16.9999 7.501C16.9999 8.36927 16.7786 9.18584 16.3893 9.89739C16.5475 9.92686 16.7108 9.94229 16.8779 9.94229C18.2923 9.94229 19.4389 8.83614 19.4389 7.47163C19.4389 6.10713 18.2923 5.00098 16.8779 5.00098C16.7004 5.00098 16.5272 5.01839 16.3599 5.05154C16.7674 5.77544 16.9999 6.61107 16.9999 7.501Z" fill="#A9A9A9"/>
<path d="M18.5526 18.9871C20.4827 18.855 22 17.8055 22 16.5305C22 15.2673 20.5089 14.2255 18.6042 14.0778C19.1434 14.7451 19.4999 15.5568 19.4999 16.5011C19.4999 17.4751 19.1205 18.3082 18.5526 18.9871Z" fill="#A9A9A9"/>
</svg>
